<svg width="100" height="100" viewBox="0 0 100 100" xmlns="http://www.w3.org/2000/svg"><g id="Page-1" stroke="none" stroke-width="1" fill="none" fill-rule="evenodd"><g id="Artboard" transform="translate(-216 -231)"><g id="01_likte_mo_r" transform="translate(216 231)"><path id="Rectangle-Copy-2" opacity=".434" d="M0 0h100v100H0z"/><g id="Group-3" transform="translate(10.163 15.65)"><path d="M20.856 0C8.036 0 0 13.107 0 20.952c0 7.845 5.644 13.681 5.644 13.681l34.06 34.058 34.25-33.58s5.644-4.4 5.644-14.35S70.222.094 58.646.094C47.07.094 39.607 10.14 39.607 10.14S33.677 0 20.857 0z" id="Path" stroke="#000" stroke-width="5.74" stroke-linecap="round" stroke-linejoin="round"/><path d="M20.856 0C8.036 0 0 13.107 0 20.952c0 7.845 5.644 13.681 5.644 13.681l34.06 34.058 34.25-33.58s5.644-4.4 5.644-14.35S70.222.094 58.646.094C47.07.094 39.607 10.14 39.607 10.14S33.677 0 20.857 0z" id="Path" stroke="#EF2A23" stroke-width="6.506" stroke-linecap="round" stroke-linejoin="round"/><path d="M20.856 0C8.036 0 0 13.107 0 20.952c0 7.845 5.644 13.681 5.644 13.681l34.06 34.058 34.25-33.58s5.644-4.4 5.644-14.35S70.222.094 58.646.094C47.07.094 39.607 10.14 39.607 10.14S33.677 0 20.857 0z" id="Path" fill="#EF2A23" fill-rule="nonzero"/></g></g></g></g></svg>